<?xml version="1.0" encoding="utf-8"?>
<!-- Generator: Adobe Illustrator 18.1.0, SVG Export Plug-In . SVG Version: 6.00 Build 0)  -->
<!DOCTYPE svg PUBLIC "-//W3C//DTD SVG 1.1//EN" "http://www.w3.org/Graphics/SVG/1.1/DTD/svg11.dtd">
<svg version="1.1" id="レイヤー_1" xmlns="http://www.w3.org/2000/svg" xmlns:xlink="http://www.w3.org/1999/xlink" x="0px"
	 y="0px" viewBox="0 0 105.6 56" enable-background="new 0 0 105.6 56" xml:space="preserve">
<g>
	<path fill="#F2F2F2" d="M4.3,40.2c0-0.3-0.1-0.5-0.3-0.7c-0.2-0.2-0.5-0.3-0.8-0.5c-0.3-0.1-0.6-0.3-1-0.4c-0.4-0.1-0.7-0.3-1-0.5
		s-0.6-0.5-0.8-0.8c-0.2-0.3-0.3-0.7-0.3-1.2c0-0.4,0.1-0.8,0.2-1.1c0.1-0.3,0.4-0.6,0.6-0.8c0.3-0.2,0.6-0.4,1-0.5
		c0.4-0.1,0.8-0.2,1.2-0.2c0.5,0,1,0,1.5,0.1c0.5,0.1,0.8,0.2,1.1,0.4l-0.5,1.5c-0.2-0.1-0.5-0.2-0.8-0.3C4.1,35,3.6,35,3.2,35
		c-0.4,0-0.7,0.1-0.9,0.2C2.1,35.4,2,35.6,2,35.9c0,0.3,0.1,0.5,0.3,0.6C2.5,36.7,2.7,36.8,3,37c0.3,0.1,0.6,0.3,1,0.4
		c0.4,0.2,0.7,0.3,1,0.6c0.3,0.2,0.6,0.5,0.8,0.8C5.9,39.1,6,39.5,6,40c0,0.5-0.1,0.9-0.2,1.2c-0.2,0.3-0.4,0.6-0.7,0.9
		c-0.3,0.2-0.6,0.4-1,0.5c-0.4,0.1-0.8,0.2-1.3,0.2c-0.6,0-1.2-0.1-1.7-0.2c-0.5-0.1-0.8-0.2-1.1-0.4l0.6-1.5
		c0.1,0.1,0.2,0.1,0.4,0.2c0.1,0.1,0.3,0.1,0.5,0.2c0.2,0.1,0.4,0.1,0.6,0.1c0.2,0,0.4,0.1,0.6,0.1c0.5,0,0.9-0.1,1.2-0.3
		C4.1,40.8,4.3,40.5,4.3,40.2z"/>
	<path fill="#F2F2F2" d="M17.4,35.2h-2.6v7.4H13v-7.4h-2.6v-1.6h7V35.2z"/>
	<path fill="#F2F2F2" d="M26.5,40.6h-2.7l-0.7,2h-1.7l3.2-9h1.3l3.2,9h-1.8L26.5,40.6z M24.2,39.2h1.9l-0.7-2l-0.3-1.4h-0.1
		l-0.3,1.4L24.2,39.2z"/>
	<path fill="#F2F2F2" d="M33.6,33.7c0.2,0,0.4-0.1,0.6-0.1c0.2,0,0.5-0.1,0.7-0.1c0.2,0,0.4,0,0.7,0c0.2,0,0.4,0,0.6,0
		c0.4,0,0.8,0,1.2,0.1c0.4,0.1,0.8,0.2,1.1,0.4c0.3,0.2,0.6,0.4,0.8,0.8c0.2,0.3,0.3,0.7,0.3,1.2c0,0.7-0.2,1.3-0.5,1.8
		c-0.3,0.5-0.8,0.8-1.4,1l0.6,0.4l2,3.4h-2l-2-3.5l-0.9-0.2v3.7h-1.7V33.7z M36.3,35.1c-0.2,0-0.4,0-0.5,0c-0.2,0-0.3,0-0.4,0.1v2.6
		h0.7c0.5,0,0.9-0.1,1.2-0.3c0.3-0.2,0.4-0.6,0.4-1.1c0-0.4-0.1-0.7-0.4-0.9C37.1,35.2,36.8,35.1,36.3,35.1z"/>
	<path fill="#F2F2F2" d="M51.5,35.2h-2.6v7.4h-1.7v-7.4h-2.6v-1.6h7V35.2z"/>
	<path fill="#F2F2F2" d="M70.2,37.9l0.2-1.8h-0.1l-0.5,1.4l-1.9,3.3h-0.6l-2-3.3l-0.6-1.4h-0.1l0.3,1.8v4.6h-1.7v-8.9h1.6l2.4,4.1
		l0.4,1h0.1l0.4-1l2.3-4.1h1.6v8.9h-1.7V37.9z"/>
	<path fill="#F2F2F2" d="M81.7,40.6H79l-0.7,2h-1.7l3.2-9H81l3.2,9h-1.8L81.7,40.6z M79.4,39.2h1.9l-0.7-2l-0.3-1.4h-0.1l-0.3,1.4
		L79.4,39.2z"/>
	<path fill="#F2F2F2" d="M88.9,33.7c0.4-0.1,0.8-0.1,1.2-0.2c0.4,0,0.9-0.1,1.3-0.1c0.4,0,0.9,0,1.3,0.1c0.4,0.1,0.8,0.2,1.2,0.4
		c0.4,0.2,0.6,0.5,0.9,0.9c0.2,0.4,0.3,0.9,0.3,1.5c0,0.6-0.1,1-0.3,1.4c-0.2,0.4-0.5,0.7-0.8,1c-0.3,0.2-0.7,0.4-1.1,0.5
		c-0.4,0.1-0.8,0.2-1.3,0.2c0,0-0.1,0-0.2,0s-0.2,0-0.3,0c-0.1,0-0.2,0-0.3,0c-0.1,0-0.2,0-0.2,0v3.1h-1.7V33.7z M91.5,35
		c-0.2,0-0.3,0-0.5,0c-0.2,0-0.3,0-0.4,0V38c0,0,0.1,0,0.2,0c0.1,0,0.1,0,0.2,0c0.1,0,0.2,0,0.2,0c0.1,0,0.1,0,0.2,0
		c0.2,0,0.5,0,0.7-0.1c0.2,0,0.4-0.1,0.6-0.2c0.2-0.1,0.3-0.3,0.4-0.5c0.1-0.2,0.2-0.5,0.2-0.8c0-0.3-0.1-0.5-0.2-0.7
		c-0.1-0.2-0.2-0.3-0.4-0.4c-0.2-0.1-0.4-0.2-0.6-0.2C91.9,35,91.7,35,91.5,35z"/>
	<path fill="#F2F2F2" d="M103.8,40.2c0-0.3-0.1-0.5-0.3-0.7c-0.2-0.2-0.5-0.3-0.8-0.5c-0.3-0.1-0.6-0.3-1-0.4
		c-0.4-0.1-0.7-0.3-1-0.5s-0.6-0.5-0.8-0.8c-0.2-0.3-0.3-0.7-0.3-1.2c0-0.4,0.1-0.8,0.2-1.1c0.1-0.3,0.4-0.6,0.6-0.8
		c0.3-0.2,0.6-0.4,1-0.5c0.4-0.1,0.8-0.2,1.2-0.2c0.5,0,1,0,1.5,0.1c0.5,0.1,0.8,0.2,1.1,0.4l-0.5,1.5c-0.2-0.1-0.5-0.2-0.8-0.3
		c-0.4-0.1-0.8-0.1-1.2-0.1c-0.4,0-0.7,0.1-0.9,0.2c-0.2,0.2-0.3,0.4-0.3,0.7c0,0.3,0.1,0.5,0.3,0.6c0.2,0.2,0.5,0.3,0.8,0.5
		c0.3,0.1,0.6,0.3,1,0.4c0.4,0.2,0.7,0.3,1,0.6s0.6,0.5,0.8,0.8c0.2,0.3,0.3,0.7,0.3,1.2c0,0.5-0.1,0.9-0.2,1.2
		c-0.2,0.3-0.4,0.6-0.7,0.9c-0.3,0.2-0.6,0.4-1,0.5c-0.4,0.1-0.8,0.2-1.3,0.2c-0.6,0-1.2-0.1-1.7-0.2c-0.5-0.1-0.8-0.2-1.1-0.4
		l0.6-1.5c0.1,0.1,0.2,0.1,0.4,0.2c0.1,0.1,0.3,0.1,0.5,0.2c0.2,0.1,0.4,0.1,0.6,0.1c0.2,0,0.4,0.1,0.6,0.1c0.5,0,0.9-0.1,1.2-0.3
		C103.7,40.8,103.8,40.5,103.8,40.2z"/>
</g>
<g>
	<polygon fill="#F2F2F2" points="43.4,17.9 34.2,23.2 38.5,7.2 45.1,4.4 	"/>
	<polygon fill="#CFE3EE" points="58.8,17.9 67.8,23.2 63,7.2 57.3,4.4 	"/>
	<polygon fill="#CFE3EE" points="51.1,23.2 43.4,17.9 45.1,4.4 51.1,7.2 	"/>
	<polygon fill="#F2F2F2" points="58.8,17.9 51.1,23.2 51.1,7.2 57.3,4.4 	"/>
</g>
</svg>
