<?xml version="1.0" encoding="utf-8"?>
<!-- Generator: Adobe Illustrator 18.1.0, SVG Export Plug-In . SVG Version: 6.00 Build 0)  -->
<!DOCTYPE svg PUBLIC "-//W3C//DTD SVG 1.1//EN" "http://www.w3.org/Graphics/SVG/1.1/DTD/svg11.dtd">
<svg version="1.1" id="レイヤー_1" xmlns="http://www.w3.org/2000/svg" xmlns:xlink="http://www.w3.org/1999/xlink" x="0px"
	 y="0px" viewBox="0 0 206.3 20" enable-background="new 0 0 206.3 20" xml:space="preserve">
<circle cx="179.3" cy="10.1" r="5.2"/>
<g>
	<path fill="#484A65" d="M7.1,10.7c0-0.4-0.2-0.8-0.5-1C6.3,9.4,5.9,9.2,5.4,9C5,8.7,4.5,8.5,3.9,8.3S2.8,7.8,2.4,7.4
		C1.9,7.1,1.5,6.7,1.2,6.2C0.9,5.6,0.7,5,0.7,4.2c0-0.7,0.1-1.3,0.3-1.8c0.2-0.5,0.5-0.9,1-1.2c0.4-0.3,0.9-0.6,1.5-0.7
		c0.6-0.2,1.2-0.2,1.9-0.2c0.8,0,1.6,0.1,2.3,0.2C8.5,0.6,9.1,0.8,9.5,1L8.7,3.3C8.4,3.1,7.9,3,7.3,2.8C6.8,2.7,6.1,2.6,5.4,2.6
		C4.8,2.6,4.3,2.7,4,3C3.6,3.2,3.5,3.6,3.5,4c0,0.4,0.2,0.7,0.5,1c0.3,0.3,0.7,0.5,1.2,0.7c0.5,0.2,1,0.5,1.5,0.7
		C7.2,6.7,7.7,7,8.2,7.3c0.5,0.3,0.9,0.8,1.2,1.3c0.3,0.5,0.5,1.1,0.5,1.9c0,0.7-0.1,1.4-0.4,1.9s-0.6,1-1,1.4
		c-0.4,0.4-1,0.6-1.6,0.8c-0.6,0.2-1.3,0.3-2.1,0.3c-1,0-1.9-0.1-2.6-0.3c-0.8-0.2-1.3-0.4-1.7-0.6l0.9-2.3c0.1,0.1,0.3,0.2,0.6,0.3
		C2.1,12,2.3,12,2.6,12.1s0.6,0.1,0.9,0.2c0.3,0.1,0.7,0.1,1,0.1c0.8,0,1.4-0.1,1.9-0.4S7.1,11.3,7.1,10.7z"/>
	<path fill="#484A65" d="M27.6,2.9h-4.1v11.6h-2.7V2.9h-4.1V0.5h10.9V2.9z"/>
	<path fill="#484A65" d="M41.9,11.4h-4.3l-1.1,3.1h-2.7l5-14.1h2l5,14.1H43L41.9,11.4z M38.3,9.2h3l-1-3.1l-0.4-2.2h-0.1l-0.4,2.2
		L38.3,9.2z"/>
	<path fill="#484A65" d="M53.1,0.6c0.3-0.1,0.6-0.1,1-0.1c0.4,0,0.7-0.1,1.1-0.1c0.4,0,0.7,0,1-0.1c0.3,0,0.6,0,0.9,0
		c0.7,0,1.3,0.1,1.9,0.2s1.2,0.3,1.7,0.6s0.9,0.7,1.2,1.2c0.3,0.5,0.5,1.2,0.5,1.9c0,1.1-0.3,2.1-0.8,2.8c-0.5,0.7-1.2,1.2-2.1,1.5
		l1,0.6l3.2,5.3h-3.2L57.3,9l-1.4-0.3v5.7h-2.7V0.6z M57.3,2.7c-0.3,0-0.6,0-0.8,0c-0.3,0-0.5,0-0.6,0.1v4.1H57
		c0.8,0,1.4-0.2,1.8-0.5c0.5-0.3,0.7-0.9,0.7-1.7c0-0.6-0.2-1.1-0.6-1.4C58.6,2.9,58,2.7,57.3,2.7z"/>
	<path fill="#484A65" d="M81.1,2.9H77v11.6h-2.7V2.9h-4.1V0.5h10.9V2.9z"/>
	<path fill="#484A65" d="M110.4,7.2l0.3-2.8h-0.1l-0.9,2.2l-3,5.2h-0.9l-3.1-5.2l-0.9-2.2h-0.1l0.4,2.8v7.3h-2.6v-14h2.5l3.7,6.4
		l0.7,1.6h0.1l0.6-1.6l3.5-6.4h2.5v14h-2.7V7.2z"/>
	<path fill="#484A65" d="M128.5,11.4h-4.3l-1.1,3.1h-2.7l5-14.1h2l5,14.1h-2.9L128.5,11.4z M124.9,9.2h3l-1-3.1l-0.4-2.2h-0.1
		l-0.4,2.2L124.9,9.2z"/>
	<path fill="#484A65" d="M139.7,0.6c0.6-0.1,1.2-0.2,1.8-0.2c0.7-0.1,1.3-0.1,2-0.1c0.7,0,1.4,0.1,2.1,0.2s1.3,0.3,1.9,0.7
		c0.6,0.3,1,0.8,1.4,1.4c0.4,0.6,0.5,1.4,0.5,2.4c0,0.9-0.2,1.6-0.5,2.2c-0.3,0.6-0.7,1.1-1.2,1.5s-1.1,0.7-1.7,0.8s-1.3,0.3-2,0.3
		c-0.1,0-0.2,0-0.3,0s-0.3,0-0.5,0c-0.2,0-0.3,0-0.5,0s-0.3,0-0.3,0v4.8h-2.7V0.6z M143.8,2.7c-0.3,0-0.5,0-0.8,0
		c-0.2,0-0.4,0-0.6,0.1v4.5c0.1,0,0.1,0,0.2,0c0.1,0,0.2,0,0.3,0s0.2,0,0.3,0s0.2,0,0.2,0c0.4,0,0.7,0,1.1-0.1
		c0.4-0.1,0.7-0.2,1-0.4c0.3-0.2,0.5-0.4,0.7-0.8c0.2-0.3,0.2-0.7,0.2-1.3c0-0.4-0.1-0.8-0.2-1.1s-0.4-0.5-0.6-0.7s-0.6-0.3-0.9-0.4
		C144.4,2.7,144.1,2.7,143.8,2.7z"/>
	<path fill="#484A65" d="M163.2,10.7c0-0.4-0.2-0.8-0.5-1c-0.3-0.3-0.7-0.5-1.2-0.7c-0.5-0.2-1-0.4-1.5-0.7
		c-0.6-0.2-1.1-0.5-1.5-0.9c-0.5-0.3-0.9-0.8-1.2-1.3s-0.5-1.2-0.5-1.9c0-0.7,0.1-1.3,0.3-1.8s0.5-0.9,1-1.2
		c0.4-0.3,0.9-0.6,1.5-0.7s1.2-0.2,1.9-0.2c0.8,0,1.6,0.1,2.3,0.2c0.7,0.1,1.3,0.3,1.8,0.6l-0.9,2.3c-0.3-0.2-0.7-0.4-1.3-0.5
		c-0.6-0.2-1.2-0.2-1.9-0.2c-0.6,0-1.1,0.1-1.5,0.4c-0.3,0.3-0.5,0.6-0.5,1c0,0.4,0.2,0.7,0.5,1c0.3,0.3,0.7,0.5,1.2,0.7
		s1,0.5,1.5,0.7c0.6,0.2,1.1,0.5,1.5,0.9s0.9,0.8,1.2,1.3c0.3,0.5,0.5,1.1,0.5,1.9c0,0.7-0.1,1.4-0.4,1.9c-0.2,0.5-0.6,1-1,1.4
		c-0.4,0.4-1,0.6-1.6,0.8c-0.6,0.2-1.3,0.3-2.1,0.3c-1,0-1.9-0.1-2.6-0.3c-0.8-0.2-1.3-0.4-1.7-0.6l0.9-2.3c0.1,0.1,0.3,0.2,0.6,0.3
		c0.2,0.1,0.5,0.2,0.8,0.3c0.3,0.1,0.6,0.1,0.9,0.2c0.3,0.1,0.7,0.1,1,0.1c0.8,0,1.4-0.1,1.9-0.4C162.9,11.7,163.2,11.3,163.2,10.7z
		"/>
</g>
<g>
	<path fill="#FFDAFF" d="M177.7,8.6c0-0.5,0.2-0.9,0.5-1.1c0.3-0.3,0.7-0.4,1.1-0.4c0.4,0,0.8,0.1,1,0.4c0.2,0.2,0.4,0.5,0.4,0.9
		c0,0.2,0,0.5-0.1,0.7c-0.1,0.2-0.2,0.4-0.4,0.5c0.7,0.3,1,0.8,0.9,1.6c0,0.4-0.2,0.6-0.5,0.9c-0.2,0.2-0.6,0.3-0.9,0.3
		c-0.6,0-1-0.2-1.2-0.7v1.3h-0.9V8.6z M178.6,10.1c0.2,0.8,0.5,1.2,1,1.3c0.2,0.1,0.3,0,0.5-0.1c0.2-0.1,0.3-0.3,0.2-0.6
		c-0.1-0.4-0.5-0.6-1.3-0.7V9.3c0.5-0.1,0.8-0.3,0.9-0.7c0-0.2,0-0.4-0.1-0.5c-0.1-0.2-0.3-0.2-0.5-0.2c-0.2,0-0.3,0.1-0.5,0.2
		c-0.1,0.1-0.2,0.3-0.2,0.5V10.1z"/>
</g>
</svg>
